<svg width="1396" height="419" viewBox="0 0 1396 419" fill="none" xmlns="http://www.w3.org/2000/svg">
<path opacity="0.2" d="M637.79 397.7C528.313 414.676 408.139 419.986 282.461 418.854C235.92 418.45 184.709 413.751 133.177 404.93C49.2412 390.572 -2.70441 350.292 0.108783 304.092C1.78107 276.778 17.6035 255.373 38.7184 237.028C68.4543 211.115 99.6065 185.785 136.169 163.919C167.314 145.249 206.516 131.572 243 116.25C265.968 106.638 288.599 96.6136 314.622 89.3532C377.177 71.8628 439.744 54.286 505.801 39.7107C578.753 23.6081 662.063 18.1705 754.962 22.6319C788.517 24.2394 815.923 17.1871 846.151 14.0824C860.997 12.5503 875.765 10.9459 890.649 9.4499C906.561 7.87979 922.057 5.82584 938.733 5.0649C982.322 3.01708 1025.65 0.629974 1070.52 0.0698543C1137.08 -0.759575 1208.05 5.60971 1286.91 29.2629C1372.24 54.8676 1409.01 96.52 1391.9 132.705C1375.3 167.843 1333.38 188.26 1293.57 209.995C1235.84 241.576 1168.99 266.684 1096.44 287.528C1003.7 314.143 910.562 340.482 814.476 364.327C758.867 378.133 696.959 386.716 637.926 397.679L637.79 397.7ZM457.79 80.8748C456.683 79.9921 455.582 79.0662 454.475 78.1835C430.1 83.5459 403.692 87.4099 381.699 94.5962C310.712 117.771 239.485 140.771 181.748 173.575C131.724 201.985 83.5758 231.455 56.7392 272.807C46.5139 288.587 40.0023 306.449 37.2399 325.249C34.0964 346.342 59.1492 365.528 99.7055 376.001C114.088 379.724 129.279 383.659 142.369 384.758C193.307 388.909 244.51 393.356 293.807 395.147C401.018 399.002 497.945 391.084 590.44 378.751C649.147 370.915 705.048 360.224 759.707 348.672C825.805 334.723 891.332 320.145 953.41 302.897C1021.21 284.007 1085.93 262.601 1149.88 240.68C1216.12 217.986 1276.2 190.846 1322.18 154.8C1339.6 141.155 1350.35 123.271 1358.48 104.949C1364.94 90.4675 1350.54 76.3381 1320.37 62.8302C1303.08 55.0875 1284.44 48.5249 1266.52 43.3251C1205.86 25.6713 1151.5 21.9641 1099.29 20.7484C993.896 18.341 896.993 25.4966 804.36 37.2611C786.939 39.4856 769.318 41.5724 751.054 42.9154C712.687 45.8011 672.908 47.1769 635.428 50.9371C600.099 54.4919 567.199 60.4533 532.867 65.0341C526.875 65.8323 517.561 63.6873 512.372 65.0359C493.602 69.8285 475.938 75.5039 457.841 80.8247L457.79 80.8748Z" fill="#DEC8FE"/>
</svg>
