<svg width="129" height="127" viewBox="0 0 129 127" fill="none" xmlns="http://www.w3.org/2000/svg">
<path d="M5.37626 10.7525C8.34544 10.7525 10.7523 8.34549 10.7523 5.3763C10.7523 2.40712 8.34544 0.00012207 5.37626 0.00012207C2.40708 0.00012207 0 2.40712 0 5.3763C0 8.34549 2.40708 10.7525 5.37626 10.7525Z" fill="#DEC8FE"/>
<path d="M28.879 10.7525C31.8482 10.7525 34.2553 8.34549 34.2553 5.3763C34.2553 2.40712 31.8482 0.00012207 28.879 0.00012207C25.9098 0.00012207 23.5029 2.40712 23.5029 5.3763C23.5029 8.34549 25.9098 10.7525 28.879 10.7525Z" fill="#DEC8FE"/>
<path d="M52.3743 10.7525C55.3435 10.7525 57.7504 8.34549 57.7504 5.3763C57.7504 2.40712 55.3435 0.00012207 52.3743 0.00012207C49.4051 0.00012207 46.998 2.40712 46.998 5.3763C46.998 8.34549 49.4051 10.7525 52.3743 10.7525Z" fill="#DEC8FE"/>
<path d="M75.9185 10.7525C78.8877 10.7525 81.2948 8.34549 81.2948 5.3763C81.2948 2.40712 78.8877 0.00012207 75.9185 0.00012207C72.9494 0.00012207 70.5425 2.40712 70.5425 5.3763C70.5425 8.34549 72.9494 10.7525 75.9185 10.7525Z" fill="#DEC8FE"/>
<path d="M99.4183 10.7525C102.387 10.7525 104.794 8.34549 104.794 5.3763C104.794 2.40712 102.387 0.00012207 99.4183 0.00012207C96.4491 0.00012207 94.042 2.40712 94.042 5.3763C94.042 8.34549 96.4491 10.7525 99.4183 10.7525Z" fill="#DEC8FE"/>
<path d="M122.959 10.7525C125.928 10.7525 128.335 8.34549 128.335 5.3763C128.335 2.40712 125.928 0.00012207 122.959 0.00012207C119.989 0.00012207 117.583 2.40712 117.583 5.3763C117.583 8.34549 119.989 10.7525 122.959 10.7525Z" fill="#DEC8FE"/>
<path d="M5.37675 30.1177C8.34593 30.1177 10.7528 27.7107 10.7528 24.7415C10.7528 21.7724 8.34593 19.3654 5.37675 19.3654C2.40757 19.3654 0.000488281 21.7724 0.000488281 24.7415C0.000488281 27.7107 2.40757 30.1177 5.37675 30.1177Z" fill="#DEC8FE"/>
<path d="M28.8795 30.1178C31.8487 30.1178 34.2557 27.7108 34.2557 24.7417C34.2557 21.7725 31.8487 19.3655 28.8795 19.3655C25.9103 19.3655 23.5034 21.7725 23.5034 24.7417C23.5034 27.7108 25.9103 30.1178 28.8795 30.1178Z" fill="#DEC8FE"/>
<path d="M52.3748 30.1178C55.344 30.1178 57.7509 27.7108 57.7509 24.7417C57.7509 21.7725 55.344 19.3655 52.3748 19.3655C49.4056 19.3655 46.9985 21.7725 46.9985 24.7417C46.9985 27.7108 49.4056 30.1178 52.3748 30.1178Z" fill="#DEC8FE"/>
<path d="M75.919 30.1178C78.8882 30.1178 81.2953 27.7108 81.2953 24.7417C81.2953 21.7725 78.8882 19.3655 75.919 19.3655C72.9498 19.3655 70.543 21.7725 70.543 24.7417C70.543 27.7108 72.9498 30.1178 75.919 30.1178Z" fill="#DEC8FE"/>
<path d="M99.4187 30.1178C102.388 30.1178 104.795 27.7108 104.795 24.7417C104.795 21.7725 102.388 19.3655 99.4187 19.3655C96.4496 19.3655 94.0425 21.7725 94.0425 24.7417C94.0425 27.7108 96.4496 30.1178 99.4187 30.1178Z" fill="#DEC8FE"/>
<path d="M122.959 30.1178C125.928 30.1178 128.335 27.7108 128.335 24.7417C128.335 21.7725 125.928 19.3655 122.959 19.3655C119.99 19.3655 117.583 21.7725 117.583 24.7417C117.583 27.7108 119.99 30.1178 122.959 30.1178Z" fill="#DEC8FE"/>
<path d="M5.37675 49.4831C8.34593 49.4831 10.7528 47.0761 10.7528 44.1069C10.7528 41.1377 8.34593 38.7307 5.37675 38.7307C2.40757 38.7307 0.000488281 41.1377 0.000488281 44.1069C0.000488281 47.0761 2.40757 49.4831 5.37675 49.4831Z" fill="#DEC8FE"/>
<path d="M28.8795 49.4836C31.8487 49.4836 34.2557 47.0766 34.2557 44.1074C34.2557 41.1382 31.8487 38.7312 28.8795 38.7312C25.9103 38.7312 23.5034 41.1382 23.5034 44.1074C23.5034 47.0766 25.9103 49.4836 28.8795 49.4836Z" fill="#DEC8FE"/>
<path d="M52.3748 49.4831C55.344 49.4831 57.7509 47.0761 57.7509 44.1069C57.7509 41.1377 55.344 38.7307 52.3748 38.7307C49.4056 38.7307 46.9985 41.1377 46.9985 44.1069C46.9985 47.0761 49.4056 49.4831 52.3748 49.4831Z" fill="#DEC8FE"/>
<path d="M75.919 49.4836C78.8882 49.4836 81.2953 47.0766 81.2953 44.1074C81.2953 41.1382 78.8882 38.7312 75.919 38.7312C72.9498 38.7312 70.543 41.1382 70.543 44.1074C70.543 47.0766 72.9498 49.4836 75.919 49.4836Z" fill="#DEC8FE"/>
<path d="M99.4187 49.4836C102.388 49.4836 104.795 47.0766 104.795 44.1074C104.795 41.1382 102.388 38.7312 99.4187 38.7312C96.4496 38.7312 94.0425 41.1382 94.0425 44.1074C94.0425 47.0766 96.4496 49.4836 99.4187 49.4836Z" fill="#DEC8FE"/>
<path d="M122.959 49.4836C125.928 49.4836 128.335 47.0766 128.335 44.1074C128.335 41.1382 125.928 38.7312 122.959 38.7312C119.99 38.7312 117.583 41.1382 117.583 44.1074C117.583 47.0766 119.99 49.4836 122.959 49.4836Z" fill="#DEC8FE"/>
<path d="M5.37675 68.849C8.34593 68.849 10.7528 66.442 10.7528 63.4729C10.7528 60.5037 8.34593 58.0967 5.37675 58.0967C2.40757 58.0967 0.000488281 60.5037 0.000488281 63.4729C0.000488281 66.442 2.40757 68.849 5.37675 68.849Z" fill="#DEC8FE"/>
<path d="M28.8795 68.8486C31.8487 68.8486 34.2557 66.4416 34.2557 63.4724C34.2557 60.5032 31.8487 58.0962 28.8795 58.0962C25.9103 58.0962 23.5034 60.5032 23.5034 63.4724C23.5034 66.4416 25.9103 68.8486 28.8795 68.8486Z" fill="#DEC8FE"/>
<path d="M52.3748 68.849C55.344 68.849 57.7509 66.442 57.7509 63.4729C57.7509 60.5037 55.344 58.0967 52.3748 58.0967C49.4056 58.0967 46.9985 60.5037 46.9985 63.4729C46.9985 66.442 49.4056 68.849 52.3748 68.849Z" fill="#DEC8FE"/>
<path d="M75.919 68.849C78.8882 68.849 81.2953 66.442 81.2953 63.4729C81.2953 60.5037 78.8882 58.0967 75.919 58.0967C72.9498 58.0967 70.543 60.5037 70.543 63.4729C70.543 66.442 72.9498 68.849 75.919 68.849Z" fill="#DEC8FE"/>
<path d="M99.4187 68.8486C102.388 68.8486 104.795 66.4416 104.795 63.4724C104.795 60.5032 102.388 58.0962 99.4187 58.0962C96.4496 58.0962 94.0425 60.5032 94.0425 63.4724C94.0425 66.4416 96.4496 68.8486 99.4187 68.8486Z" fill="#DEC8FE"/>
<path d="M122.959 68.8486C125.928 68.8486 128.335 66.4416 128.335 63.4724C128.335 60.5032 125.928 58.0962 122.959 58.0962C119.99 58.0962 117.583 60.5032 117.583 63.4724C117.583 66.4416 119.99 68.8486 122.959 68.8486Z" fill="#DEC8FE"/>
<path d="M5.37675 88.2143C8.34593 88.2143 10.7528 85.8073 10.7528 82.8381C10.7528 79.8689 8.34593 77.4619 5.37675 77.4619C2.40757 77.4619 0.000488281 79.8689 0.000488281 82.8381C0.000488281 85.8073 2.40757 88.2143 5.37675 88.2143Z" fill="#DEC8FE"/>
<path d="M28.8795 88.2143C31.8487 88.2143 34.2557 85.8073 34.2557 82.8381C34.2557 79.8689 31.8487 77.4619 28.8795 77.4619C25.9103 77.4619 23.5034 79.8689 23.5034 82.8381C23.5034 85.8073 25.9103 88.2143 28.8795 88.2143Z" fill="#DEC8FE"/>
<path d="M52.3748 88.2143C55.344 88.2143 57.7509 85.8073 57.7509 82.8381C57.7509 79.8689 55.344 77.4619 52.3748 77.4619C49.4056 77.4619 46.9985 79.8689 46.9985 82.8381C46.9985 85.8073 49.4056 88.2143 52.3748 88.2143Z" fill="#DEC8FE"/>
<path d="M75.919 88.2143C78.8882 88.2143 81.2953 85.8073 81.2953 82.8381C81.2953 79.8689 78.8882 77.4619 75.919 77.4619C72.9498 77.4619 70.543 79.8689 70.543 82.8381C70.543 85.8073 72.9498 88.2143 75.919 88.2143Z" fill="#DEC8FE"/>
<path d="M99.4187 88.2143C102.388 88.2143 104.795 85.8073 104.795 82.8381C104.795 79.8689 102.388 77.4619 99.4187 77.4619C96.4496 77.4619 94.0425 79.8689 94.0425 82.8381C94.0425 85.8073 96.4496 88.2143 99.4187 88.2143Z" fill="#DEC8FE"/>
<path d="M122.959 88.2143C125.928 88.2143 128.335 85.8073 128.335 82.8381C128.335 79.8689 125.928 77.4619 122.959 77.4619C119.99 77.4619 117.583 79.8689 117.583 82.8381C117.583 85.8073 119.99 88.2143 122.959 88.2143Z" fill="#DEC8FE"/>
<path d="M5.37675 107.58C8.34593 107.58 10.7528 105.173 10.7528 102.204C10.7528 99.2346 8.34593 96.8276 5.37675 96.8276C2.40757 96.8276 0.000488281 99.2346 0.000488281 102.204C0.000488281 105.173 2.40757 107.58 5.37675 107.58Z" fill="#DEC8FE"/>
<path d="M28.8795 107.58C31.8487 107.58 34.2557 105.173 34.2557 102.204C34.2557 99.2346 31.8487 96.8276 28.8795 96.8276C25.9103 96.8276 23.5034 99.2346 23.5034 102.204C23.5034 105.173 25.9103 107.58 28.8795 107.58Z" fill="#DEC8FE"/>
<path d="M52.3748 107.58C55.344 107.58 57.7509 105.173 57.7509 102.204C57.7509 99.2346 55.344 96.8276 52.3748 96.8276C49.4056 96.8276 46.9985 99.2346 46.9985 102.204C46.9985 105.173 49.4056 107.58 52.3748 107.58Z" fill="#DEC8FE"/>
<path d="M75.919 107.58C78.8882 107.58 81.2953 105.173 81.2953 102.204C81.2953 99.2346 78.8882 96.8276 75.919 96.8276C72.9498 96.8276 70.543 99.2346 70.543 102.204C70.543 105.173 72.9498 107.58 75.919 107.58Z" fill="#DEC8FE"/>
<path d="M99.4187 107.58C102.388 107.58 104.795 105.173 104.795 102.204C104.795 99.2346 102.388 96.8276 99.4187 96.8276C96.4496 96.8276 94.0425 99.2346 94.0425 102.204C94.0425 105.173 96.4496 107.58 99.4187 107.58Z" fill="#DEC8FE"/>
<path d="M122.959 107.58C125.928 107.58 128.335 105.173 128.335 102.204C128.335 99.2346 125.928 96.8276 122.959 96.8276C119.99 96.8276 117.583 99.2346 117.583 102.204C117.583 105.173 119.99 107.58 122.959 107.58Z" fill="#DEC8FE"/>
<path d="M5.37626 126.945C8.34544 126.945 10.7523 124.538 10.7523 121.569C10.7523 118.6 8.34544 116.193 5.37626 116.193C2.40708 116.193 0 118.6 0 121.569C0 124.538 2.40708 126.945 5.37626 126.945Z" fill="#DEC8FE"/>
<path d="M28.8785 126.945C31.8477 126.945 34.2548 124.538 34.2548 121.569C34.2548 118.6 31.8477 116.193 28.8785 116.193C25.9093 116.193 23.5024 118.6 23.5024 121.569C23.5024 124.538 25.9093 126.945 28.8785 126.945Z" fill="#DEC8FE"/>
<path d="M52.3743 126.945C55.3435 126.945 57.7504 124.538 57.7504 121.569C57.7504 118.6 55.3435 116.193 52.3743 116.193C49.4051 116.193 46.998 118.6 46.998 121.569C46.998 124.538 49.4051 126.945 52.3743 126.945Z" fill="#DEC8FE"/>
<path d="M75.919 126.945C78.8882 126.945 81.2953 124.538 81.2953 121.569C81.2953 118.6 78.8882 116.193 75.919 116.193C72.9498 116.193 70.543 118.6 70.543 121.569C70.543 124.538 72.9498 126.945 75.919 126.945Z" fill="#DEC8FE"/>
<path d="M99.4178 126.945C102.387 126.945 104.794 124.538 104.794 121.569C104.794 118.6 102.387 116.193 99.4178 116.193C96.4486 116.193 94.0415 118.6 94.0415 121.569C94.0415 124.538 96.4486 126.945 99.4178 126.945Z" fill="#DEC8FE"/>
<path d="M122.959 126.945C125.928 126.945 128.335 124.538 128.335 121.569C128.335 118.6 125.928 116.193 122.959 116.193C119.989 116.193 117.583 118.6 117.583 121.569C117.583 124.538 119.989 126.945 122.959 126.945Z" fill="#DEC8FE"/>
</svg>
