<svg width="231" height="247" viewBox="0 0 231 247" fill="none" xmlns="http://www.w3.org/2000/svg">
<path d="M122.822 130.934C120.881 132.782 116.647 129.811 118.277 125.225C119.401 120.777 127.306 117.097 134.223 121.857C141.202 125.972 144.308 138.802 136.457 148.06C129.365 157.538 111.641 160.077 100.018 149.089C88.04 139.012 86.0033 116.33 100.098 102.39C113.133 87.8918 140.734 86.491 157.027 103.703C174.045 119.753 174.944 152.266 154.636 170.896C135.641 190.401 98.1998 190.705 77.2151 167.242C55.162 145.224 55.3907 102.859 81.9186 79.555C106.884 55.025 154.143 55.8527 179.831 85.5489C206.882 113.526 205.588 165.746 172.816 193.731C141.904 223.279 84.7765 221.325 54.4119 185.396C22.3211 151.447 24.7523 89.3922 63.7392 56.7198C100.615 22.1692 167.575 25.221 202.634 67.3947C239.752 107.303 236.205 179.224 190.995 216.566C148.158 256.153 71.3597 251.945 31.608 203.551C-10.5195 157.676 -5.8908 75.911 45.5598 33.8846C94.3543 -10.7056 181.001 -5.39557 225.438 49.2406" stroke="#DEC8FE" stroke-width="6" stroke-linecap="round"/>
</svg>
