<svg width="127" height="227" viewBox="0 0 127 227" fill="none" xmlns="http://www.w3.org/2000/svg">
<path fill-rule="evenodd" clip-rule="evenodd" d="M226.065 71.3992C222.346 87.6569 207.428 98.4443 191.312 97.4849C206.242 103.628 214.985 119.83 211.265 136.087C207.546 152.344 192.628 163.132 176.512 162.173C191.441 168.316 200.185 184.518 196.465 200.775C192.322 218.886 174.28 230.209 156.169 226.065C139.912 222.346 129.124 207.428 130.083 191.312C123.94 206.242 107.739 214.985 91.4812 211.265C75.2238 207.546 64.436 192.628 65.3954 176.512C59.252 191.441 43.051 200.185 26.7932 196.465C8.68202 192.321 -2.64078 174.28 1.50285 156.169C5.22241 139.912 20.1407 129.124 36.2556 130.083C21.3268 123.94 12.5834 107.739 16.303 91.4812C20.0225 75.2238 34.9408 64.436 51.0557 65.3953C36.1269 59.252 27.3834 43.051 31.1031 26.7932C35.2468 8.68201 53.288 -2.64086 71.3992 1.50284C87.657 5.22251 98.4443 20.1407 97.485 36.2556C103.628 21.3267 119.83 12.5834 136.087 16.303C152.344 20.0225 163.132 34.9408 162.173 51.0557C168.316 36.1269 184.518 27.3835 200.775 31.1031C218.886 35.2467 230.209 53.288 226.065 71.3992ZM94.9955 47.1366C89.5527 60.3636 76.2146 68.7348 61.9368 67.8848C75.1638 73.3277 83.5349 86.6661 82.6848 100.944C88.1277 87.7169 101.466 79.3455 115.744 80.1955C102.517 74.7526 94.1455 61.4144 94.9955 47.1366ZM126.624 82.6848C140.902 83.5349 154.241 75.1638 159.683 61.9368C158.833 76.2146 167.205 89.5528 180.432 94.9956C166.154 94.1456 152.816 102.517 147.373 115.744C148.223 101.466 139.851 88.1277 126.624 82.6848ZM132.573 180.432C138.016 167.205 151.354 158.834 165.632 159.684C152.405 154.241 144.033 140.902 144.883 126.624C139.441 139.851 126.102 148.223 111.824 147.373C125.051 152.816 133.423 166.154 132.573 180.432ZM80.1955 111.824C79.3455 126.102 87.7169 139.441 100.944 144.883C86.6661 144.033 73.3276 152.405 67.8847 165.632C68.7347 151.354 60.3636 138.016 47.1366 132.573C61.4144 133.423 74.7526 125.051 80.1955 111.824Z" fill="#23A4A3"/>
</svg>
