<svg width="38" height="38" viewBox="0 0 38 38" fill="none" xmlns="http://www.w3.org/2000/svg">
<path d="M20.0155 28.5876C20.4034 28.23 20.6077 27.7987 20.6282 27.2935C20.6488 26.7883 20.4802 26.3426 20.1226 25.9564L12.5501 17.7416C12.1925 17.3536 11.7616 17.1498 11.2572 17.1302C10.7529 17.1106 10.3067 17.2787 9.9189 17.6345C9.53104 17.9903 9.32726 18.4213 9.30754 18.9274C9.28783 19.4335 9.45592 19.8796 9.81183 20.2657L17.3843 28.4806C17.7419 28.8685 18.1733 29.0727 18.6784 29.0933C19.1836 29.1138 19.6293 28.9453 20.0155 28.5876ZM24.7536 22.2574L26.8118 13.7755C26.942 13.2757 26.8388 12.8432 26.5022 12.4781C26.1657 12.113 25.743 11.975 25.2342 12.0641L16.6132 13.4264C16.0605 13.5137 15.6909 13.8224 15.5041 14.3525C15.3174 14.8826 15.4138 15.3534 15.7932 15.7651L22.356 22.8846C22.7346 23.2954 23.1961 23.4297 23.7404 23.2875C24.2847 23.1454 24.6225 22.802 24.7536 22.2574ZM31.6954 33.0163C29.8014 34.7621 27.69 36.0432 25.3612 36.8595C23.0324 37.6757 20.6844 38.0361 18.3171 37.9407C15.9499 37.8452 13.6389 37.2953 11.3842 36.2907C9.12946 35.2862 7.12913 33.8378 5.38319 31.9456C3.63725 30.0534 2.35618 27.942 1.53999 25.6114C0.723794 23.2809 0.363385 20.9328 0.458762 18.5673C0.55414 16.2018 1.10413 13.8908 2.10874 11.6344C3.11335 9.37792 4.56173 7.3776 6.45388 5.63341C8.34604 3.88922 10.4574 2.60816 12.7881 1.79021C15.1187 0.972256 17.4667 0.611845 19.8321 0.708977C22.1976 0.806108 24.509 1.35568 26.7664 2.35769C29.0239 3.3597 31.0238 4.8085 32.766 6.7041C34.5083 8.59969 35.7894 10.7111 36.6093 13.0383C37.4291 15.3655 37.7895 17.7135 37.6905 20.0823C37.5915 22.4512 37.0419 24.7627 36.0418 27.0167C35.0417 29.2707 33.5928 31.2705 31.6954 33.0163ZM29.1712 30.278C32.229 27.4593 33.8408 24.0108 34.0068 19.9325C34.1727 15.8541 32.8464 12.286 30.0278 9.22825C27.2091 6.17049 23.7606 4.55864 19.6822 4.39268C15.6038 4.22673 12.0358 5.55306 8.97803 8.3717C5.92028 11.1903 4.30842 14.6388 4.14247 18.7172C3.97651 22.7956 5.30285 26.3637 8.12148 29.4214C10.9401 32.4792 14.3886 34.091 18.467 34.257C22.5454 34.4229 26.1135 33.0966 29.1712 30.278Z" fill="white"/>
</svg>
