<svg width="143" height="12" viewBox="0 0 143 12" fill="none" xmlns="http://www.w3.org/2000/svg">
<path d="M1 1C8.05248 1 8.05248 10.5056 15.105 10.5056C22.1574 10.5056 22.1574 1 29.2099 1C36.2624 1 36.2624 10.5056 43.2984 10.5056C50.3511 10.5056 50.3511 1 57.3868 1C64.4394 1 64.4394 10.5056 71.4752 10.5056C78.5278 10.5056 78.5278 1 85.5799 1C92.6326 1 92.6326 10.5056 99.6852 10.5056C106.737 10.5056 106.737 1 113.79 1C120.843 1 120.843 10.5056 127.895 10.5056C134.947 10.5056 134.947 1 142 1" stroke="#4F4F4F" stroke-width="1.58427" stroke-miterlimit="10" stroke-linecap="round"/>
</svg>
