<svg width="151" height="151" viewBox="0 0 151 151" fill="none" xmlns="http://www.w3.org/2000/svg">
<path d="M75.0794 3.1254C94.9678 3.1254 114.042 10.8976 128.105 24.7323C142.168 38.5669 150.069 57.3307 150.069 76.8959C150.069 96.461 142.168 115.225 128.105 129.059C114.042 142.894 94.9678 150.666 75.0794 150.666C55.1909 150.666 36.117 142.894 22.0538 129.059C7.9905 115.225 0.0898438 96.461 0.0898438 76.8959C0.0898438 57.3307 7.9905 38.5669 22.0538 24.7323C36.117 10.8976 55.1909 3.1254 75.0794 3.1254Z" fill="url(#paint0_linear_186_457)"/>
<path d="M75.0794 3.1254C55.1909 3.1254 36.117 10.8976 22.0538 24.7323C7.9905 38.5669 0.0898438 57.3307 0.0898438 76.8959C0.0898438 96.461 7.9905 115.225 22.0538 129.06C36.117 142.894 55.1909 150.666 75.0794 150.666V3.1254Z" fill="url(#paint1_linear_186_457)"/>
<path d="M150.069 74.4369C150.069 84.1245 148.129 93.7174 144.361 102.668C140.592 111.618 135.069 119.75 128.105 126.6C121.142 133.451 112.875 138.885 103.777 142.592C94.6787 146.299 84.9274 148.207 75.0796 148.207C65.2319 148.207 55.4805 146.299 46.3824 142.592C37.2842 138.885 29.0174 133.451 22.054 126.6C15.0906 119.75 9.5669 111.618 5.79833 102.668C2.02975 93.7174 0.0900877 84.1245 0.0900879 74.4369C0.0900882 54.8717 7.99075 36.1079 22.054 22.2733C36.1173 8.43861 55.1912 0.666382 75.0796 0.666382C94.9681 0.666382 114.042 8.43861 128.105 22.2733C142.169 36.1079 150.069 54.8717 150.069 74.4369Z" fill="#C8E8E8" fill-opacity="0.63"/>
<path d="M30.0857 75.6664C30.0182 91.8547 33.3365 107.884 39.8343 122.757C35.2922 124.985 31.1541 127.935 27.586 131.486C19.1581 124.704 12.3328 116.197 7.5844 106.557C2.83605 96.9177 0.278605 86.3765 0.0898438 75.6664H30.0857Z" fill="#44BCBB"/>
<path d="M75.0796 115.011V148.207C69.4553 148.207 63.8311 147.593 58.3319 146.363C50.1438 140.199 43.7615 132.012 39.8345 122.634C50.8245 117.443 62.8897 114.833 75.0796 115.011Z" fill="#49BBB0" fill-opacity="0.57"/>
<path d="M120.073 75.6664C120.141 91.8547 116.822 107.884 110.325 122.757C114.867 124.985 119.005 127.935 122.573 131.486C131.001 124.704 137.826 116.197 142.575 106.557C147.323 96.9177 149.88 86.3765 150.069 75.6664H120.073Z" fill="#44BCBB"/>
<path d="M75.0796 75.6664V148.207C80.7038 148.207 86.328 147.593 91.8273 146.363C108.575 134.683 119.823 106.896 120.073 75.6664H75.0796Z" fill="#8ACDC8"/>
<path d="M75.0796 115.011V148.207C80.7038 148.207 86.328 147.593 91.8273 146.363C99.0762 141.445 105.45 133.207 110.325 122.634C99.3346 117.443 87.2694 114.833 75.0796 115.011Z" fill="#3FBFAF"/>
<path d="M110.325 122.757C105.325 133.207 99.0761 141.322 91.8271 146.363C103.094 143.841 113.617 138.792 122.573 131.609C119.046 127.978 114.901 124.982 110.325 122.757Z" fill="#23A4A3"/>
<path d="M75.0796 0.666383C65.1257 0.665022 55.2712 2.61312 46.0906 6.39708C36.9101 10.181 28.5871 15.7252 21.6071 22.7061C14.6271 29.6871 9.12972 37.9653 5.43549 47.0579C1.74125 56.1506 -0.0758906 65.8757 0.0900066 75.6664H75.0796V0.666383Z" fill="#23A4A3"/>
<path d="M58.3319 2.51065C47.0647 5.03269 36.5424 10.0821 27.5862 17.2648C31.1126 20.896 35.2579 23.8921 39.8345 26.1172C44.8338 15.6664 51.0829 7.55163 58.3319 2.51065Z" fill="#2DAEA7"/>
<path d="M75.0797 0.666382C69.4554 0.666382 63.8312 1.28114 58.332 2.51064C41.3344 14.3139 30.0859 42.7156 30.0859 74.4369V75.6664H75.0797V0.666382Z" fill="#88B7D4"/>
<path d="M75.0796 0.666382C69.4553 0.666382 63.8311 1.28114 58.3319 2.51064C50.148 8.67861 43.7667 16.8649 39.8345 26.2402C50.8245 31.431 62.8897 34.0405 75.0796 33.8631V0.666382Z" fill="#B6C0EA"/>
<path d="M75.0796 0.666383C85.0334 0.665022 94.8879 2.61312 104.068 6.39708C113.249 10.181 121.572 15.7252 128.552 22.7061C135.532 29.6871 141.029 37.9653 144.724 47.0579C148.418 56.1506 150.235 65.8757 150.069 75.6664H75.0796V0.666383Z" fill="#23A4A3"/>
<path d="M91.8274 2.51065C103.095 5.03269 113.617 10.0821 122.573 17.2648C119.047 20.896 114.901 23.8921 110.325 26.1172C105.326 15.6664 99.0764 7.55163 91.8274 2.51065Z" fill="#3FBFAF" fill-opacity="0.35"/>
<path d="M75.0796 0.666382C80.7038 0.666382 86.328 1.28114 91.8273 2.51064C108.825 14.3139 120.073 42.7156 120.073 74.4369V75.6664H75.0796V0.666382Z" fill="#DEC8FE" fill-opacity="0.54"/>
<path d="M75.0796 0.666382C80.7038 0.666382 86.328 1.28114 91.8273 2.51064C99.0762 7.42868 105.45 15.6664 110.325 26.1172C100.326 31.0352 87.8278 33.8631 75.0796 33.8631V0.666382Z" fill="#CFB1FB" fill-opacity="0.54"/>
<defs>
<linearGradient id="paint0_linear_186_457" x1="117.573" y1="134.683" x2="130.072" y2="134.683" gradientUnits="userSpaceOnUse">
<stop stop-color="#23A4A3" stop-opacity="0.41"/>
<stop offset="1" stop-color="#DEC8FE" stop-opacity="0.54"/>
</linearGradient>
<linearGradient id="paint1_linear_186_457" x1="67.5804" y1="144.519" x2="12.5881" y2="144.519" gradientUnits="userSpaceOnUse">
<stop offset="1" stop-color="#49BBB0"/>
</linearGradient>
</defs>
</svg>
